<svg xmlns="http://www.w3.org/2000/svg" width="22.118" height="25.278" viewBox="0 0 22.118 25.278">
  <g id="Discord-Logo-White_3_" data-name="Discord-Logo-White(3)" transform="translate(-35 -20)">
    <path id="Path_1348" data-name="Path 1348" d="M95.489,103.9a1.408,1.408,0,1,0,1.289,1.4A1.347,1.347,0,0,0,95.489,103.9Zm4.613,0a1.408,1.408,0,1,0,1.289,1.4A1.347,1.347,0,0,0,100.1,103.9Z" transform="translate(-51.718 -73.296)" fill="#fff"/>
    <path id="Path_1349" data-name="Path 1349" d="M54.527,20H37.591A2.6,2.6,0,0,0,35,22.6V39.691a2.6,2.6,0,0,0,2.591,2.6H51.923l-.67-2.338,1.618,1.5L54.4,42.876l2.717,2.4V22.6A2.6,2.6,0,0,0,54.527,20ZM49.648,36.506s-.455-.543-.834-1.024a3.988,3.988,0,0,0,2.288-1.5,7.232,7.232,0,0,1-1.453.746,8.319,8.319,0,0,1-1.833.543,8.854,8.854,0,0,1-3.273-.013,10.609,10.609,0,0,1-1.858-.543,7.407,7.407,0,0,1-.923-.43c-.038-.025-.076-.038-.114-.063a.175.175,0,0,1-.051-.038c-.228-.126-.354-.215-.354-.215a3.931,3.931,0,0,0,2.212,1.491c-.379.48-.847,1.049-.847,1.049a4.583,4.583,0,0,1-3.855-1.921,16.925,16.925,0,0,1,1.82-7.368,6.25,6.25,0,0,1,3.552-1.327l.126.152A8.527,8.527,0,0,0,40.928,27.7s.278-.152.746-.367a9.491,9.491,0,0,1,2.869-.8,1.245,1.245,0,0,1,.215-.025,10.694,10.694,0,0,1,2.553-.025,10.3,10.3,0,0,1,3.8,1.213,8.412,8.412,0,0,0-3.147-1.605l.177-.2A6.25,6.25,0,0,1,51.7,27.217a16.925,16.925,0,0,1,1.82,7.368A4.62,4.62,0,0,1,49.648,36.506Z" fill="#fff"/>
  </g>
</svg>
