<svg xmlns="http://www.w3.org/2000/svg" width="15.496" height="15.496" viewBox="0 0 15.496 15.496">
  <g id="Footer_instagram" data-name="Footer instagram" transform="translate(-11.2 -11.2)">
    <g id="Group_16" data-name="Group 16" transform="translate(11.2 11.2)">
      <path id="Path_6" data-name="Path 6" d="M18.949,11.2c-2.1,0-2.368.009-3.195.047a5.685,5.685,0,0,0-1.88.36,3.963,3.963,0,0,0-2.267,2.266,5.659,5.659,0,0,0-.36,1.88c-.037.826-.047,1.091-.047,3.195s.009,2.367.047,3.194a5.694,5.694,0,0,0,.36,1.88,3.965,3.965,0,0,0,2.266,2.267,5.691,5.691,0,0,0,1.881.36c.826.038,1.09.047,3.194.047s2.368-.009,3.194-.047a5.7,5.7,0,0,0,1.881-.36,3.97,3.97,0,0,0,2.266-2.267,5.742,5.742,0,0,0,.36-1.88c.037-.826.047-1.09.047-3.194s-.01-2.368-.047-3.195a5.739,5.739,0,0,0-.36-1.88,3.964,3.964,0,0,0-2.266-2.266,5.7,5.7,0,0,0-1.882-.36c-.826-.038-1.09-.047-3.194-.047Zm-.258,1.4h.258c2.069,0,2.314.007,3.131.045a4.29,4.29,0,0,1,1.439.267,2.568,2.568,0,0,1,1.47,1.471,4.281,4.281,0,0,1,.267,1.438c.037.817.045,1.062.045,3.13s-.008,2.313-.045,3.13a4.286,4.286,0,0,1-.267,1.438,2.57,2.57,0,0,1-1.47,1.47,4.273,4.273,0,0,1-1.439.267c-.817.037-1.062.045-3.131.045s-2.314-.008-3.131-.045a4.3,4.3,0,0,1-1.439-.267,2.567,2.567,0,0,1-1.471-1.47,4.281,4.281,0,0,1-.267-1.438c-.037-.817-.045-1.062-.045-3.131s.007-2.313.045-3.13a4.288,4.288,0,0,1,.267-1.438A2.567,2.567,0,0,1,14.379,12.9a4.281,4.281,0,0,1,1.439-.267c.715-.032.992-.042,2.436-.044v0Zm3.464,2.216a.93.93,0,0,1,.93-.929h0a.93.93,0,1,1-.93.93Zm-3.206.157a3.978,3.978,0,1,0,3.978,3.979A3.979,3.979,0,0,0,18.948,14.969Zm2.583,3.979a2.583,2.583,0,1,0-2.583,2.583A2.583,2.583,0,0,0,21.531,18.948Z" transform="translate(-11.2 -11.2)" fill-rule="evenodd"/>
    </g>
  </g>
</svg>
