<svg xmlns="http://www.w3.org/2000/svg" xmlns:xlink="http://www.w3.org/1999/xlink" width="44" height="44" viewBox="0 0 44 44">
  <defs>
    <clipPath id="clip-path">
      <rect id="Rectangle_143" data-name="Rectangle 143" width="44" height="44"/>
    </clipPath>
  </defs>
  <g id="Group_141" data-name="Group 141" clip-path="url(#clip-path)">
    <path id="Path_1366" data-name="Path 1366" d="M24.772,2h5.3a5.861,5.861,0,0,1,5.858,5.858v16.65a5.861,5.861,0,0,1-5.858,5.859h-5.3a5.861,5.861,0,0,1-5.858-5.859V7.858A5.861,5.861,0,0,1,24.772,2Z" transform="translate(-5.849 -0.619)"/>
    <path id="Path_1367" data-name="Path 1367" d="M24.238,46.069l-.008-1.079a.688.688,0,0,0-.687-.68H22.532A9.53,9.53,0,0,1,13,34.778h0V34.1h0a.681.681,0,0,1,.681-.68h1.361a.681.681,0,0,1,.681.68h0v.681h0a6.81,6.81,0,0,0,6.808,6.808h6.127a6.811,6.811,0,0,0,6.809-6.808h0V34.1h0a.68.68,0,0,1,.68-.68H37.51a.68.68,0,0,1,.68.68h0v.681h0a9.53,9.53,0,0,1-9.532,9.532H27.647a.687.687,0,0,0-.686.68l-.009,1.079.012,3.687a.683.683,0,0,0,.682.68h4.712a.682.682,0,0,1,.681.681v1.361a.682.682,0,0,1-.681.681H18.831a.682.682,0,0,1-.681-.681V51.118a.682.682,0,0,1,.681-.681h4.712a.683.683,0,0,0,.682-.68Z" transform="translate(-4.02 -10.334)"/>
  </g>
</svg>
