<svg xmlns="http://www.w3.org/2000/svg" width="25.359" height="25.359" viewBox="0 0 25.359 25.359">
  <g id="Singular_Sparkle_Star" data-name="Singular Sparkle/Star" transform="matrix(0.985, -0.174, 0.174, 0.985, 0, 3.801)">
    <path id="Path_1280" data-name="Path 1280" d="M20.679,9.774a8.63,8.63,0,0,1-8.562-8.562,1.212,1.212,0,0,0-2.423,0A8.561,8.561,0,0,1,1.212,9.774a1.212,1.212,0,1,0,0,2.423,8.492,8.492,0,0,1,8.481,8.481,1.212,1.212,0,0,0,2.423,0A8.561,8.561,0,0,1,20.679,12.2a1.212,1.212,0,1,0,0-2.423Z" transform="translate(0 0)" fill="#f5db48"/>
    <path id="Path_1281" data-name="Path 1281" d="M1.212,20.679A8.561,8.561,0,0,1,9.774,12.2a1.212,1.212,0,1,0,0-2.423A8.63,8.63,0,0,1,1.212,1.212,1.211,1.211,0,0,0,0,0V21.89A1.211,1.211,0,0,0,1.212,20.679Z" transform="translate(10.905 0)" fill="#f1c03c"/>
  </g>
</svg>
