<svg id="Solid" xmlns="http://www.w3.org/2000/svg" width="31.79" height="35.323" viewBox="0 0 31.79 35.323">
  <path id="Path_1362" data-name="Path 1362" d="M18.9,10.556c-7.374,0-12.7-1.489-15.9-3.587v3.587c0,1.358,3.914,5.3,15.9,5.3s15.9-3.94,15.9-5.3V6.969C31.6,9.067,26.269,10.556,18.9,10.556Z" transform="translate(-3 1.807)"/>
  <path id="Path_1363" data-name="Path 1363" d="M18.9,20.854c11.981,0,15.9-3.94,15.9-5.3V11.969c-3.195,2.1-8.522,3.587-15.9,3.587S6.195,14.067,3,11.969v3.587C3,16.914,6.914,20.854,18.9,20.854Z" transform="translate(-3 5.638)"/>
  <path id="Path_1364" data-name="Path 1364" d="M18.588,10.831c9.175,0,13.608-2.307,15.187-4C31.664,3.653,25.1,2,18.588,2S5.512,3.653,3.4,6.83C4.98,8.524,9.413,10.831,18.588,10.831Z" transform="translate(-2.693 -2)"/>
  <path id="Path_1365" data-name="Path 1365" d="M18.9,20.556c-7.374,0-12.7-1.489-15.9-3.587V18.79c0,4.638,8,7.065,15.9,7.065s15.9-2.427,15.9-7.065V16.969C31.6,19.067,26.269,20.556,18.9,20.556Z" transform="translate(-3 9.468)"/>
</svg>
