<svg xmlns="http://www.w3.org/2000/svg" width="20" height="14" viewBox="0 0 20 14">
  <path id="radio_signal-_1026_" data-name="radio_signal-[#1026]" d="M95.432,3487.64c-.023-.025-.04-.054-.065-.078l0,0a1.98,1.98,0,1,0-2.825,2.776l.03.024c.023.024.04.054.065.078l0,0a1.98,1.98,0,1,0,2.825-2.776c-.009-.009-.02-.014-.029-.023m-4.313-1.468-1.414-1.39c-2.12,2.085-2.022,6.356.1,8.44l1.413-1.389a4.309,4.309,0,0,1-.1-5.661m-2.828-2.78L86.877,3482a9.846,9.846,0,0,0,.1,14l1.413-1.39c-2.828-2.779-2.927-8.44-.1-11.22m9.9,1.39-1.414,1.39a4.31,4.31,0,0,1,.1,5.661l1.413,1.39c2.121-2.085,2.022-6.356-.1-8.442M101.122,3496l-1.414-1.39c2.83-2.779,2.73-8.44-.1-11.22l1.414-1.39a9.847,9.847,0,0,1,.1,14" transform="translate(-84 -3482.002)" fill="#2bcd95" fill-rule="evenodd"/>
</svg>
