<svg xmlns="http://www.w3.org/2000/svg" width="42.105" height="42.105" viewBox="0 0 42.105 42.105">
  <path id="Path_1357" data-name="Path 1357" d="M38.087,3H10.017A7.017,7.017,0,0,0,3,10.017v28.07A7.017,7.017,0,0,0,10.017,45.1h28.07A7.017,7.017,0,0,0,45.1,38.087V10.017A7.017,7.017,0,0,0,38.087,3ZM31.07,26.392H26.392V31.07a2.339,2.339,0,1,1-4.678,0V26.392H17.035a2.339,2.339,0,0,1,0-4.678h4.678V17.035a2.339,2.339,0,1,1,4.678,0v4.678H31.07a2.339,2.339,0,0,1,0,4.678Z" transform="translate(-3 -3)"/>
</svg>
