<svg xmlns="http://www.w3.org/2000/svg" width="425" height="272.273" viewBox="0 0 425 272.273">
  <g id="Card" transform="translate(-222 -620.727)">
    <g id="Layer_x0020_1" transform="translate(222 620.723)">
      <rect id="Rectangle_116" data-name="Rectangle 116" width="425" height="272" rx="25" transform="translate(0 0.277)" fill="#545454"/>
      <path id="Path_1343" data-name="Path 1343" d="M60.978,1117.53H197.241L303.444,846H61.078A26.168,26.168,0,0,0,35,872.078v219.373a26.168,26.168,0,0,0,26.078,26.078Z" transform="translate(-34.9 -845.996)" fill="#656464" fill-rule="evenodd"/>
      <g id="_454769528" transform="translate(329.781 221.619)">
        <path id="Path_1344" data-name="Path 1344" d="M1074.248,1814.626a8.873,8.873,0,0,1-.641-1.282,15.8,15.8,0,0,0-6.607-6.484,5.635,5.635,0,0,0,.271,1.011l4.388,15.828h5.646l6.287-14.546c.271-.666,1.923-4.314,2.046-4.881h-5.646l-5.029,12.919a.517.517,0,0,1-.123.173,25.75,25.75,0,0,0-.592-2.761Zm44.648-4.881a32.3,32.3,0,0,0,.715,3.55c.271,1.109.518,2.342.764,3.5h-4.265Zm-10.823,14.078c6.188,0,5.1.444,5.843-1.405.2-.518.395-1.109.616-1.578h6.755c.049.493.222,1.035.321,1.553.148.666.172,1.405.567,1.405,5.3,0,4.758.321,4.487-1.011-.1-.468-.148-.74-.271-1.233-.2-.838-.37-1.627-.542-2.441l-2.17-9.911q-.517-2.478-1.109-4.956c-1.381,0-4.98-.3-5.966.469-.986.74-1.75,3.057-2.268,4.191-.444,1.011-.888,1.972-1.331,3.032-.419,1.036-.838,1.948-1.307,2.958-1.035,2.219-2.687,6.385-3.673,8.333-.123.271-.37.567.074.567Zm-12.8-13.683v.592c0,2.219,2.564,4.093,4.24,4.783a12.076,12.076,0,0,1,1.282.617c4.61,2.465-.2,5.251-5.7,3.032a7.513,7.513,0,0,0-1.307-.493c-.049.616-.246,1.43-.345,2.12l-.345,2.145c0,.518,4.265,1.085,5.251,1.085,2.86,0,4.98-.173,7.224-1.7,2.958-2.022,4.29-6.657-.345-9.443-1.676-1.011-4.413-1.75-4.413-3.229,0-2,4.857-1.948,7.446-.592.074-.814.69-3.378.69-4.265a13.183,13.183,0,0,0-5.35-.789C1099.839,1804,1095.278,1806.268,1095.278,1810.139Zm-10.823,13.584h5.35l2.885-16.962c.074-.419.123-.789.2-1.183a7.311,7.311,0,0,0,.2-1.282h-5.35c0,.666-2.539,15.088-2.86,16.987l-.419,2.465Z" transform="translate(-1061.477 -1804)" fill-rule="evenodd"/>
        <path id="Path_1345" data-name="Path 1345" d="M848.523,1818.576a15.8,15.8,0,0,1,6.607,6.484,12.42,12.42,0,0,0,.641,1.282c0-.592-1.257-6.164-1.455-7.2-.641-3.254-.838-3.156-5.473-3.156H843v.32c.025.247.2.2,1.183.469a21.841,21.841,0,0,1,4.364,1.8Z" transform="translate(-843 -1815.691)" fill-rule="evenodd"/>
      </g>
    </g>
    <g id="Group_103" data-name="Group 103" transform="translate(56 -333)">
      <circle id="Ellipse_19" data-name="Ellipse 19" cx="4" cy="4" r="4" transform="translate(248 1086)" fill="#fff"/>
      <circle id="Ellipse_20" data-name="Ellipse 20" cx="4" cy="4" r="4" transform="translate(266 1086)" fill="#fff"/>
      <circle id="Ellipse_21" data-name="Ellipse 21" cx="4" cy="4" r="4" transform="translate(283 1086)" fill="#fff"/>
      <circle id="Ellipse_22" data-name="Ellipse 22" cx="4" cy="4" r="4" transform="translate(299 1086)" fill="#fff"/>
      <circle id="Ellipse_23" data-name="Ellipse 23" cx="4" cy="4" r="4" transform="translate(324 1086)" fill="#fff"/>
      <circle id="Ellipse_24" data-name="Ellipse 24" cx="4" cy="4" r="4" transform="translate(342 1086)" fill="#fff"/>
      <circle id="Ellipse_25" data-name="Ellipse 25" cx="4" cy="4" r="4" transform="translate(359 1086)" fill="#fff"/>
      <circle id="Ellipse_26" data-name="Ellipse 26" cx="4" cy="4" r="4" transform="translate(375 1086)" fill="#fff"/>
      <circle id="Ellipse_27" data-name="Ellipse 27" cx="4" cy="4" r="4" transform="translate(400 1086)" fill="#fff"/>
      <circle id="Ellipse_28" data-name="Ellipse 28" cx="4" cy="4" r="4" transform="translate(418 1086)" fill="#fff"/>
      <circle id="Ellipse_29" data-name="Ellipse 29" cx="4" cy="4" r="4" transform="translate(435 1086)" fill="#fff"/>
      <circle id="Ellipse_30" data-name="Ellipse 30" cx="4" cy="4" r="4" transform="translate(451 1086)" fill="#fff"/>
    </g>
  </g>
</svg>
