<svg xmlns="http://www.w3.org/2000/svg" width="19.078" height="19.078" viewBox="0 0 19.078 19.078">
  <path id="Path_1346" data-name="Path 1346" d="M9.539,19.078a9.539,9.539,0,1,1,9.539-9.539A9.539,9.539,0,0,1,9.539,19.078Zm0-16.693a7.154,7.154,0,1,0,7.154,7.154A7.155,7.155,0,0,0,9.539,2.385Zm3.372,10.526a1.191,1.191,0,0,1-1.686,0L9.539,11.225,7.853,12.911a1.193,1.193,0,1,1-1.687-1.686L7.853,9.539,6.166,7.853A1.193,1.193,0,1,1,7.853,6.166L9.539,7.853l1.686-1.687a1.193,1.193,0,1,1,1.686,1.687L11.225,9.539l1.686,1.686a1.191,1.191,0,0,1,0,1.686Z" fill="#cd2b2b"/>
</svg>
