<svg xmlns="http://www.w3.org/2000/svg" width="226" height="71" viewBox="0 0 226 71">
  <g id="Discord_Login_page_button" data-name="Discord Login page button" transform="translate(-0.485 0.261)">
    <rect id="Rectangle_16" data-name="Rectangle 16" width="226" height="71" rx="13" transform="translate(0.485 -0.261)" fill="#7289da"/>
    <text id="Login" transform="translate(107.484 40.739)" fill="#fff" font-size="18" font-family="Whitney-Bold, Whitney" font-weight="700"><tspan x="0" y="0">Login</tspan></text>
    <g id="Discord-Logo-White_3_" data-name="Discord-Logo-White(3)" transform="translate(71.604 20.441)">
      <path id="Path_1235" data-name="Path 1235" d="M95.728,103.9a1.669,1.669,0,1,0,1.528,1.663A1.6,1.6,0,0,0,95.728,103.9Zm5.468,0a1.669,1.669,0,1,0,1.528,1.663A1.6,1.6,0,0,0,101.2,103.9Z" transform="translate(-85.331 -91.331)" fill="#fff"/>
      <path id="Path_1236" data-name="Path 1236" d="M58.146,20H38.071A3.079,3.079,0,0,0,35,23.086V43.34a3.079,3.079,0,0,0,3.071,3.086H55.06l-.794-2.771,1.918,1.783L58,47.116l3.221,2.846V23.086A3.079,3.079,0,0,0,58.146,20ZM52.363,39.565s-.539-.644-.989-1.213a4.727,4.727,0,0,0,2.712-1.783,8.572,8.572,0,0,1-1.723.884,9.861,9.861,0,0,1-2.172.644,10.494,10.494,0,0,1-3.88-.015,12.576,12.576,0,0,1-2.2-.644,8.779,8.779,0,0,1-1.094-.509c-.045-.03-.09-.045-.135-.075a.207.207,0,0,1-.06-.045c-.27-.15-.419-.255-.419-.255a4.659,4.659,0,0,0,2.622,1.768c-.449.569-1,1.243-1,1.243a5.432,5.432,0,0,1-4.569-2.277,20.062,20.062,0,0,1,2.157-8.734,7.408,7.408,0,0,1,4.21-1.573l.15.18a10.107,10.107,0,0,0-3.94,1.963s.33-.18.884-.434a11.25,11.25,0,0,1,3.4-.944,1.476,1.476,0,0,1,.255-.03,12.676,12.676,0,0,1,3.026-.03A12.212,12.212,0,0,1,54.1,29.123a9.97,9.97,0,0,0-3.73-1.9l.21-.24a7.408,7.408,0,0,1,4.21,1.573,20.062,20.062,0,0,1,2.157,8.734A5.476,5.476,0,0,1,52.363,39.565Z" transform="translate(-35 -20)" fill="#fff"/>
    </g>
  </g>
</svg>
