<svg xmlns="http://www.w3.org/2000/svg" width="14.705" height="16.806" viewBox="0 0 14.705 16.806">
  <g id="Footer_discord" data-name="Footer discord" transform="translate(17 -109)">
    <path id="Path_7" data-name="Path 7" d="M95.057,103.9a.936.936,0,1,0,.857.933A.9.9,0,0,0,95.057,103.9Zm3.067,0a.936.936,0,1,0,.857.933A.9.9,0,0,0,98.124,103.9Z" transform="translate(-106.226 12.15)" fill="#444"/>
    <path id="Path_8" data-name="Path 8" d="M47.982,20H36.723A1.727,1.727,0,0,0,35,21.731V33.092a1.727,1.727,0,0,0,1.723,1.731h9.529l-.445-1.555,1.076,1,1.017.941,1.807,1.6V21.731A1.727,1.727,0,0,0,47.982,20ZM44.739,30.974s-.3-.361-.555-.681a2.652,2.652,0,0,0,1.521-1,4.808,4.808,0,0,1-.966.5,5.531,5.531,0,0,1-1.218.361,5.886,5.886,0,0,1-2.176-.008,7.054,7.054,0,0,1-1.235-.361A4.924,4.924,0,0,1,39.5,29.5c-.025-.017-.05-.025-.076-.042a.116.116,0,0,1-.034-.025c-.151-.084-.235-.143-.235-.143a2.613,2.613,0,0,0,1.471.992c-.252.319-.563.7-.563.7A3.047,3.047,0,0,1,37.5,29.7a11.253,11.253,0,0,1,1.21-4.9,4.155,4.155,0,0,1,2.361-.882l.084.1a5.669,5.669,0,0,0-2.21,1.1s.185-.1.5-.244a6.31,6.31,0,0,1,1.907-.529.828.828,0,0,1,.143-.017,7.11,7.11,0,0,1,1.7-.017,6.85,6.85,0,0,1,2.529.807,5.592,5.592,0,0,0-2.092-1.067l.118-.134A4.155,4.155,0,0,1,46.1,24.8a11.253,11.253,0,0,1,1.21,4.9A3.072,3.072,0,0,1,44.739,30.974Z" transform="translate(-52 89)" fill="#444"/>
  </g>
</svg>
