<svg width="99" height="101" viewBox="0 0 99 101" fill="none" xmlns="http://www.w3.org/2000/svg">
<path d="M0.904 0.199993H24.232C32.104 0.199993 38.008 2.31199 41.944 6.536C45.88 10.76 47.848 16.952 47.848 25.112V35.048C47.848 43.208 45.88 49.4 41.944 53.624C38.008 57.848 32.104 59.96 24.232 59.96H16.744V101H0.904V0.199993ZM24.232 45.56C26.824 45.56 28.744 44.84 29.992 43.4C31.336 41.96 32.008 39.512 32.008 36.056V24.104C32.008 20.648 31.336 18.2 29.992 16.76C28.744 15.32 26.824 14.6 24.232 14.6H16.744V45.56H24.232ZM56.4509 0.199993H98.3549V14.6H72.2909V42.68H92.7389V57.08H72.2909V101H56.4509V0.199993Z" fill="white"/>
</svg>
