<svg xmlns="http://www.w3.org/2000/svg" width="18.91" height="16.201" viewBox="0 0 18.91 16.201">
  <g id="Proxy_Purchases_Icon" data-name="Proxy Purchases Icon" transform="translate(-33.276 -101)">
    <path id="Path_1337" data-name="Path 1337" d="M33.873,102.2H37.16l-.577-.439c.1.291.192.583.287.876q.347,1.05.692,2.1.416,1.263.834,2.53.362,1.1.722,2.2c.118.355.229.712.351,1.065l.006.016a.6.6,0,1,0,1.155-.317c-.1-.291-.192-.583-.287-.876q-.347-1.05-.692-2.1-.416-1.266-.834-2.532-.362-1.1-.722-2.2c-.118-.355-.227-.712-.351-1.065l-.006-.016a.617.617,0,0,0-.577-.439H33.875a.6.6,0,0,0,0,1.2Z" transform="translate(0 0)" fill="#2bcd95"/>
    <path id="Path_1338" data-name="Path 1338" d="M288.611,541.856q-.485.865-.972,1.728c-.046.084-.094.166-.14.249a.6.6,0,0,0,.517.9h9.138c.421,0,.844.008,1.267,0h.018a.6.6,0,1,0,0-1.2H289.3c-.421,0-.846-.012-1.267,0h-.018l.517.9q.485-.865.972-1.728c.046-.084.094-.166.14-.249a.6.6,0,0,0-1.034-.6Z" transform="translate(-249.076 -431.776)" fill="#2bcd95"/>
    <circle id="Ellipse_43" data-name="Ellipse 43" cx="1.359" cy="1.359" r="1.359" transform="translate(46.148 114.084)" fill="#2bcd95"/>
    <path id="Path_1339" data-name="Path 1339" d="M658.4,738.731a1.787,1.787,0,0,0,1.173,1.656,1.759,1.759,0,0,0,1.917-.511,1.758,1.758,0,1,0-3.091-1.145.4.4,0,0,0,.4.4.407.407,0,0,0,.4-.4c0-.032,0-.066,0-.1a.3.3,0,0,1,0-.042c.006-.08,0,.026,0,.024a.775.775,0,0,1,.048-.2c.006-.016.018-.084.032-.088s-.036.074-.014.034a.477.477,0,0,0,.022-.048,1.812,1.812,0,0,1,.1-.17c.038-.058-.054.062.01-.012.02-.022.04-.046.062-.068s.044-.044.066-.064l.03-.026c.014-.012.072-.04.02-.018s-.012.01,0,0l.044-.03a.749.749,0,0,1,.068-.04c.03-.018.062-.032.094-.048.01-.006.052-.026,0,0s.02-.006.026-.008a1.233,1.233,0,0,1,.168-.048l.054-.01c.044-.01-.038,0-.038,0,.036,0,.074-.008.11-.008a1.609,1.609,0,0,1,.2.006c.074.006-.076-.014.016,0,.036.006.07.016.106.024s.06.018.09.028a.446.446,0,0,1,.05.018c0,.006-.074-.038-.034-.014.056.034.118.06.174.1l.044.03c.014.01.044.018,0,0s-.014-.012,0,0l.04.034a1.782,1.782,0,0,1,.136.14c.06.066-.028-.046.01.012.016.026.034.05.05.076s.032.054.046.08l.018.036c.038.072.008-.006,0-.01.024.008.05.152.058.178l.018.08c.016.076,0-.024,0-.026s.006.056.006.068a1.365,1.365,0,0,1,0,.182.5.5,0,0,0,0,.056c0,.04-.024.034,0-.024a.633.633,0,0,0-.022.106c-.014.056-.036.11-.052.166s.036-.068.01-.022a.2.2,0,0,0-.016.036c-.016.032-.032.062-.05.092s-.032.052-.05.078c-.054.082.038-.04-.008.014a1.533,1.533,0,0,1-.136.142c-.008.008-.056.06-.07.06s.082-.056.018-.016c-.012.008-.022.014-.032.022-.056.036-.114.066-.172.1s.072-.024-.014.006l-.088.03-.092.024-.04.008c-.088.02.064,0,.012,0a1.611,1.611,0,0,1-.2.008c-.032,0-.064,0-.1-.006-.012,0-.06-.006,0,0s-.014,0-.028-.006a1.51,1.51,0,0,1-.206-.06c-.012,0-.052-.024,0,0s-.012-.006-.024-.012c-.032-.016-.062-.032-.092-.05s-.058-.038-.088-.058c-.048-.03.006.016.018.016-.008,0-.034-.028-.04-.034a1.46,1.46,0,0,1-.148-.148.236.236,0,0,1-.034-.04c0,.008.048.068.016.018-.02-.03-.04-.058-.058-.088s-.038-.07-.056-.1c-.042-.082.02.064-.012-.026a1.449,1.449,0,0,1-.058-.208.129.129,0,0,0-.008-.04c.03.066.006.056,0,.01s-.006-.084-.006-.126a.4.4,0,0,0-.808,0Z" transform="translate(-612.65 -623.287)" fill="#2bcd95"/>
    <circle id="Ellipse_44" data-name="Ellipse 44" cx="1.359" cy="1.359" r="1.359" transform="translate(39.27 114.084)" fill="#2bcd95"/>
    <path id="Path_1340" data-name="Path 1340" d="M313.7,738.731a1.787,1.787,0,0,0,1.173,1.656,1.759,1.759,0,0,0,1.917-.511,1.758,1.758,0,1,0-3.091-1.145.4.4,0,0,0,.4.4.407.407,0,0,0,.4-.4c0-.032,0-.066,0-.1a.294.294,0,0,1,0-.042c.006-.08,0,.026,0,.024a.778.778,0,0,1,.048-.2c.006-.016.018-.084.032-.088s-.036.074-.014.034a.49.49,0,0,0,.022-.048,1.812,1.812,0,0,1,.1-.17c.038-.058-.054.062.01-.012.02-.022.04-.046.062-.068s.044-.044.066-.064l.03-.026c.014-.012.072-.04.02-.018s-.012.01,0,0l.044-.03a.757.757,0,0,1,.068-.04c.03-.018.062-.032.094-.048.01-.006.052-.026,0,0s.02-.006.026-.008a1.232,1.232,0,0,1,.168-.048l.054-.01c.044-.01-.038,0-.038,0,.036,0,.074-.008.11-.008a1.61,1.61,0,0,1,.2.006c.074.006-.076-.014.016,0,.036.006.07.016.106.024s.06.018.09.028a.443.443,0,0,1,.05.018c0,.006-.074-.038-.034-.014.056.034.118.06.174.1l.044.03c.014.01.044.018,0,0s-.014-.012,0,0l.04.034a1.787,1.787,0,0,1,.136.14c.06.066-.028-.046.01.012.016.026.034.05.05.076s.032.054.046.08l.018.036c.038.072.008-.006,0-.01.024.008.05.152.058.178l.018.08c.016.076,0-.024,0-.026s.006.056.006.068a1.365,1.365,0,0,1,0,.182.5.5,0,0,0,0,.056c0,.04-.024.034,0-.024a.627.627,0,0,0-.022.106c-.014.056-.036.11-.052.166s.036-.068.01-.022a.2.2,0,0,0-.016.036c-.016.032-.032.062-.05.092s-.032.052-.05.078c-.054.082.038-.04-.008.014a1.526,1.526,0,0,1-.136.142c-.008.008-.056.06-.07.06s.082-.056.018-.016c-.012.008-.022.014-.032.022-.056.036-.114.066-.172.1s.072-.024-.014.006l-.088.03-.092.024-.04.008c-.088.02.064,0,.012,0a1.611,1.611,0,0,1-.2.008c-.032,0-.064,0-.1-.006-.012,0-.06-.006,0,0s-.014,0-.028-.006a1.513,1.513,0,0,1-.206-.06c-.012,0-.052-.024,0,0s-.012-.006-.024-.012c-.032-.016-.062-.032-.092-.05s-.058-.038-.088-.058c-.048-.03.006.016.018.016-.008,0-.034-.028-.04-.034a1.469,1.469,0,0,1-.148-.148.236.236,0,0,1-.034-.04c0,.008.048.068.016.018-.02-.03-.04-.058-.058-.088s-.038-.07-.056-.1c-.042-.082.02.064-.012-.026a1.449,1.449,0,0,1-.058-.208.131.131,0,0,0-.008-.04c.03.066.006.056,0,.01s-.006-.084-.006-.126a.4.4,0,0,0-.808,0Z" transform="translate(-274.825 -623.287)" fill="#2bcd95"/>
    <g id="Group_101" data-name="Group 101" transform="translate(37.591 103.726)">
      <path id="Path_1341" data-name="Path 1341" d="M283.489,258l-2.422,6.245h-9.308L269.7,258Z" transform="translate(-269.297 -257.593)" fill="#2bcd95"/>
      <path id="Path_1342" data-name="Path 1342" d="M263.328,237.908q-.41,1.056-.818,2.113-.652,1.685-1.3,3.368l-.3.774.385-.293h-8.162c-.375,0-.754-.016-1.131,0h-.016l.385.293q-.35-1.062-.7-2.123-.554-1.679-1.105-3.36c-.086-.257-.17-.515-.255-.774l-.385.5h13.23c.18,0,.359,0,.537,0h.024a.4.4,0,1,0,0-.8h-13.23c-.18,0-.359,0-.537,0h-.024a.4.4,0,0,0-.385.5q.35,1.062.7,2.123.554,1.679,1.105,3.36c.086.257.17.515.255.774a.412.412,0,0,0,.385.293h8.162c.375,0,.754.014,1.131,0h.016a.415.415,0,0,0,.385-.293q.41-1.056.818-2.113.652-1.685,1.3-3.368l.3-.774a.4.4,0,0,0-.279-.491A.409.409,0,0,0,263.328,237.908Z" transform="translate(-249.522 -237.611)" fill="#2bcd95"/>
    </g>
  </g>
</svg>
